<?xml version="1.0" standalone="no"?>
<!DOCTYPE svg PUBLIC "-//W3C//DTD SVG 20010904//EN"
 "http://www.w3.org/TR/2001/REC-SVG-20010904/DTD/svg10.dtd">
<svg version="1.0" xmlns="http://www.w3.org/2000/svg"
 width="260.000000pt" height="260.000000pt" viewBox="0 0 260.000000 260.000000"
 preserveAspectRatio="xMidYMid meet">
<metadata>
Created by potrace 1.14, written by Peter Selinger 2001-2017
</metadata>
<g transform="translate(0.000000,260.000000) scale(0.100000,-0.100000)"
fill="#000000" stroke="none">
<path d="M2469 2468 c-6 -15 -2 -65 5 -61 5 3 6 1 3 -4 -4 -6 -20 -16 -37 -23
-32 -13 -40 -27 -15 -27 8 0 12 4 9 9 -3 4 0 8 5 8 16 0 14 -9 -11 -38 -11
-15 -18 -19 -15 -10 7 21 -18 31 -33 13 -6 -7 -13 -23 -15 -35 -6 -30 -11 -34
-19 -15 -3 9 -2 14 3 10 11 -6 8 22 -4 32 -4 4 -5 3 -1 -4 3 -6 2 -14 -3 -18
-6 -3 -7 -15 -1 -29 7 -20 6 -23 -15 -20 -14 1 -31 -6 -42 -19 -10 -11 -12
-17 -4 -12 9 5 12 3 9 -6 -3 -8 -16 -14 -30 -13 -14 1 -25 -4 -25 -12 0 -10 4
-11 14 -2 11 8 12 7 7 -6 -4 -9 -14 -16 -23 -15 -30 3 -38 -1 -38 -17 0 -15 2
-15 11 -2 10 13 13 13 25 1 11 -12 10 -14 -5 -11 -11 2 -18 -2 -17 -9 2 -7 -4
-10 -12 -7 -8 4 -15 1 -15 -6 0 -6 -5 -8 -12 -4 -10 6 -10 4 0 -8 9 -11 10
-18 2 -23 -6 -3 -8 -10 -6 -14 3 -4 -9 -5 -26 -3 -28 4 -30 3 -23 -19 4 -16 3
-20 -3 -11 -7 11 -10 10 -16 -3 -3 -9 -4 -20 -1 -25 3 -4 -3 -14 -13 -21 -9
-7 -14 -9 -10 -5 4 5 2 16 -5 24 -10 13 -9 14 2 7 10 -5 12 -4 7 3 -4 7 -2 12
5 12 7 0 10 2 7 5 -12 13 -38 -8 -33 -26 5 -15 3 -18 -12 -12 -13 4 -11 0 6
-14 19 -15 21 -22 11 -28 -8 -5 -11 -4 -6 3 3 6 2 13 -3 16 -5 3 -11 -3 -14
-14 -3 -10 -1 -21 4 -24 5 -2 4 -3 -3 -2 -19 5 -50 -13 -43 -24 4 -6 -1 -7
-11 -3 -12 4 -15 3 -10 -5 5 -8 2 -10 -9 -6 -8 4 -22 1 -30 -6 -8 -6 -20 -8
-27 -4 -10 5 -10 4 -1 -6 10 -11 15 -11 29 1 10 8 15 9 11 2 -4 -6 -1 -13 5
-16 12 -5 -1 -6 -54 -7 -18 -1 -19 -3 -8 -10 8 -5 18 -6 23 -3 5 3 3 -4 -4
-15 -13 -21 -35 -20 -23 1 4 7 -5 1 -19 -12 -20 -18 -24 -28 -16 -37 8 -10 3
-12 -25 -9 -31 3 -34 1 -20 -12 10 -11 12 -19 4 -27 -5 -7 -6 -16 -2 -20 4 -4
0 -6 -8 -4 -8 2 -18 10 -23 18 -4 8 -5 -5 -3 -30 3 -25 2 -38 -1 -30 -7 17
-23 30 -37 30 -6 0 -1 -7 10 -15 18 -14 18 -14 -3 -10 -16 3 -20 0 -16 -11 3
-7 10 -11 17 -7 6 4 5 -1 -2 -10 -8 -9 -19 -15 -25 -14 -7 1 -11 -4 -10 -10 2
-7 -2 -13 -7 -13 -14 0 -12 11 6 31 12 13 12 19 3 25 -7 4 -10 3 -6 -3 4 -6 0
-13 -8 -17 -8 -3 -15 -12 -15 -21 0 -8 -5 -15 -11 -15 -5 0 -7 5 -4 10 9 15
-4 12 -21 -4 -8 -8 -10 -17 -5 -20 5 -4 11 -2 13 3 1 5 12 3 23 -6 19 -15 19
-15 -4 -8 -17 5 -21 4 -16 -5 6 -9 2 -9 -15 0 -12 6 -24 9 -28 6 -3 -3 0 -6 6
-6 18 0 34 -37 20 -46 -6 -4 -9 -3 -6 2 3 5 0 15 -8 22 -9 8 -14 9 -14 2 0 -6
-5 -8 -12 -4 -7 4 -8 3 -4 -5 4 -6 13 -8 19 -5 7 4 9 4 5 -1 -4 -4 -3 -14 3
-21 7 -8 6 -14 -2 -20 -7 -4 -9 -3 -5 4 3 6 -2 15 -12 21 -31 17 -80 -39 -73
-82 1 -4 -5 -15 -13 -23 -13 -12 -15 -11 -21 7 -6 19 -8 19 -20 3 -15 -22 -10
-41 13 -47 10 -3 5 -4 -10 -4 -15 1 -25 4 -22 8 2 4 0 10 -5 14 -6 3 -8 -5 -5
-20 3 -18 1 -23 -10 -19 -8 3 -13 14 -11 25 2 11 0 17 -6 14 -5 -4 -7 -11 -4
-16 4 -5 -1 -12 -9 -15 -9 -3 -13 -11 -10 -16 4 -7 9 -6 14 1 5 9 10 8 19 -2
9 -12 8 -15 -6 -13 -12 1 -17 -5 -16 -19 1 -11 0 -14 -3 -7 -5 10 -10 8 -21
-8 -8 -12 -21 -19 -28 -16 -17 6 -35 -13 -28 -30 4 -12 8 -12 22 -2 9 7 5 0
-8 -15 -25 -28 -43 -39 -22 -13 8 10 9 16 1 21 -5 3 -10 1 -10 -5 0 -6 -4 -9
-9 -5 -5 3 -16 -1 -24 -9 -8 -8 -17 -13 -20 -10 -3 3 -4 -2 -3 -12 2 -10 11
-21 22 -25 17 -7 18 -8 1 -8 -11 -1 -15 -6 -11 -13 4 -6 3 -8 -4 -4 -5 3 -13
0 -15 -6 -4 -10 -6 -10 -6 0 -1 6 -6 12 -11 12 -7 0 -7 -6 0 -19 6 -13 7 -22
0 -26 -5 -3 -6 -13 -3 -23 7 -18 5 -17 -17 12 -12 16 -12 18 -1 11 10 -6 12
-4 6 5 -6 9 -4 11 5 5 9 -6 11 -4 5 4 -5 9 -13 7 -29 -8 -16 -15 -25 -17 -39
-10 -17 10 -18 9 -21 -13 0 -6 -8 -13 -16 -15 -13 -4 -13 -3 0 6 12 8 12 11 1
11 -11 0 -11 3 -1 16 8 8 9 14 4 13 -5 -1 -12 0 -16 1 -5 1 -14 3 -20 4 -7 0
-13 8 -13 16 -1 8 -6 14 -13 12 -8 -1 -7 6 4 23 9 14 13 25 8 23 -21 -6 -52
22 -50 45 2 14 -2 24 -10 24 -9 0 -10 -5 -3 -19 8 -15 6 -18 -15 -16 -13 1
-22 6 -20 10 5 7 -10 12 -28 9 -15 -2 4 27 25 38 13 7 15 10 4 6 -24 -7 -67
23 -67 47 0 12 4 17 12 12 7 -5 8 -3 4 5 -6 9 -12 8 -26 -4 -13 -12 -23 -14
-35 -7 -16 8 -16 9 -1 15 10 4 15 3 11 -3 -3 -6 -1 -10 4 -10 15 0 13 12 -6
35 -10 12 -14 14 -10 5 3 -11 -2 -16 -14 -17 -10 -1 -20 5 -20 13 -1 8 -2 20
-3 27 -1 6 3 15 9 19 6 5 5 8 -3 8 -7 0 -15 -7 -18 -15 -4 -8 -11 -12 -16 -9
-7 4 -7 9 0 13 5 3 13 17 17 31 l8 25 -22 -25 -21 -25 10 28 c6 16 6 26 1 22
-5 -3 -12 -1 -16 5 -4 6 -10 8 -15 5 -5 -3 -11 -1 -15 5 -3 5 0 10 7 10 10 0
9 3 -2 9 -8 6 -17 8 -22 5 -10 -6 -29 32 -20 41 4 5 1 4 -7 0 -11 -6 -13 -4
-8 7 6 17 -16 19 -30 3 -4 -4 -2 -5 6 0 9 5 12 4 7 -3 -4 -7 -3 -12 3 -12 17
0 33 -38 19 -46 -6 -4 -8 -3 -4 4 7 12 -22 45 -34 37 -9 -6 -7 17 6 50 7 20 7
20 -12 0 -10 -12 -15 -15 -10 -8 6 9 3 13 -8 13 -10 0 -14 5 -11 10 4 6 11 8
16 5 5 -4 9 -1 9 4 0 16 -16 13 -34 -4 -16 -16 -31 -20 -22 -6 3 5 0 14 -8 20
-11 9 -15 9 -18 -1 -3 -8 -6 -7 -10 4 -8 19 12 19 35 0 8 -7 18 -9 21 -4 3 5
-10 15 -29 22 -19 8 -35 20 -35 27 0 9 -5 11 -12 7 -8 -5 -7 0 2 11 14 17 13
18 -3 12 -11 -4 -16 -3 -12 3 3 6 1 10 -5 10 -6 0 -8 5 -5 10 3 6 -1 13 -10
16 -12 5 -13 9 -5 14 8 5 7 9 -5 13 -10 5 -14 3 -9 -4 4 -7 1 -10 -7 -7 -8 3
-13 14 -13 26 1 12 -3 19 -7 16 -5 -3 -7 -10 -4 -15 4 -5 -5 -8 -19 -7 -13 1
-22 7 -19 12 4 5 -1 7 -10 3 -24 -9 -21 0 4 14 13 7 19 7 15 1 -3 -6 -1 -14 6
-18 7 -4 10 -4 6 1 -4 4 -2 15 5 23 9 13 9 14 0 8 -8 -4 -13 -2 -13 6 0 10 -2
10 -8 1 -10 -16 -88 35 -96 62 -5 18 -4 19 8 3 7 -10 17 -14 21 -10 5 4 5 1 1
-5 -4 -7 -2 -13 3 -13 6 0 11 7 11 15 0 8 -5 15 -12 15 -6 0 -19 7 -29 16 -13
12 -19 12 -25 3 -4 -8 -3 -10 4 -5 8 5 10 1 5 -9 -4 -13 -8 -14 -14 -4 -4 7
-3 22 3 32 7 15 7 18 -2 12 -9 -5 -10 -1 -5 16 7 22 7 22 -10 6 -17 -17 -18
-17 -39 0 -11 10 -23 19 -25 20 -2 1 6 1 17 0 11 0 18 -5 15 -11 -4 -5 -1 -6
7 -1 9 6 11 4 5 -5 -5 -9 -4 -11 4 -6 8 6 9 12 2 20 -6 7 -8 15 -6 18 3 3 -8
4 -25 2 -20 -2 -33 1 -36 11 -4 8 -11 12 -18 8 -6 -4 -3 5 7 20 13 21 14 25 2
21 -8 -3 -17 -14 -20 -25 -4 -10 -11 -19 -18 -19 -8 0 -8 3 1 12 19 19 14 32
-5 17 -15 -11 -16 -11 -5 1 17 19 15 35 -2 21 -11 -9 -16 -9 -22 0 -4 8 -3 9
4 5 7 -4 12 -2 12 4 0 6 -7 13 -15 16 -8 4 -15 11 -15 16 0 6 6 5 15 -2 8 -7
15 -9 15 -4 0 5 5 2 11 -6 7 -10 9 -11 7 -2 -2 8 -7 13 -11 12 -11 -1 -37 26
-37 39 0 6 -4 11 -9 11 -5 0 -7 -10 -5 -22 4 -21 4 -21 -4 -3 -5 11 -14 21
-21 21 -6 1 -15 2 -21 3 -5 0 -10 6 -10 12 0 8 6 7 18 -2 15 -13 16 -12 4 3
-7 9 -21 15 -30 13 -9 -2 -20 -4 -24 -4 -5 -1 -8 -496 -8 -1101 l0 -1100 1300
0 1300 0 0 1230 0 1230 -65 0 c-36 0 -65 -1 -66 -2z m18 -22 c-3 -7 -1 -19 4
-25 6 -8 5 -8 -3 -1 -15 13 -19 40 -6 40 6 0 8 -6 5 -14z m8 -66 c-3 -5 -14
-10 -23 -9 -14 0 -13 2 3 9 27 11 27 11 20 0z m-99 -55 c-1 -8 -5 -17 -8 -21
-5 -4 -4 16 1 34 3 9 9 -1 7 -13z m-58 -96 c3 -12 2 -12 -6 0 -7 9 -12 10 -16
2 -4 -6 -12 -9 -17 -5 -5 3 -7 9 -4 14 8 13 38 5 43 -11z m-2308 -29 c0 -5 -5
-10 -11 -10 -5 0 -7 5 -4 10 3 6 8 10 11 10 2 0 4 -4 4 -10z m260 -234 c0 -3
-4 -8 -10 -11 -5 -3 -10 -1 -10 4 0 6 5 11 10 11 6 0 10 -2 10 -4z m1640 -151
c-7 -9 -15 -13 -19 -10 -3 3 1 10 9 15 21 14 24 12 10 -5z m-45 -23 c2 -12 0
-24 -5 -27 -5 -3 -7 4 -5 16 3 16 0 19 -12 15 -13 -5 -14 -4 -3 9 15 18 19 16
25 -13z m-1420 -2 c3 -5 1 -10 -4 -10 -6 0 -11 5 -11 10 0 6 2 10 4 10 3 0 8
-4 11 -10z m38 -33 c-5 -8 -8 -7 -11 1 -3 9 -9 9 -25 1 -21 -9 -21 -9 -4 5 21
16 51 11 40 -7z m231 -229 c-3 -4 -9 -8 -15 -8 -5 0 -9 4 -9 8 0 5 7 9 15 9 8
0 12 -4 9 -9z m847 -26 c-6 -2 -9 -8 -6 -13 4 -5 -1 -6 -9 -3 -10 4 -16 1 -16
-7 0 -7 -3 -9 -7 -6 -3 4 5 17 18 29 13 13 26 19 28 14 2 -6 -1 -12 -8 -14z
m-844 2 c-3 -3 -12 -4 -19 -1 -8 3 -5 6 6 6 11 1 17 -2 13 -5z m39 -6 c5 -7 3
-8 -6 -3 -10 6 -12 4 -6 -11 5 -14 4 -16 -5 -7 -6 6 -8 16 -5 22 9 14 13 14
22 -1z m711 -83 c0 -8 -4 -12 -9 -9 -5 3 -6 10 -3 15 9 13 12 11 12 -6z m-467
-179 c0 -2 -7 -7 -16 -10 -8 -3 -12 -2 -9 4 6 10 25 14 25 6z m274 -10 c-3 -8
-13 -17 -22 -21 -13 -5 -13 -2 3 15 21 24 26 25 19 6z m-239 -15 c3 -5 0 -13
-6 -17 -7 -4 -9 -3 -5 4 3 5 0 13 -6 15 -9 4 -10 6 -1 6 6 1 14 -3 18 -8z m45
-91 c0 -5 -7 -7 -15 -4 -8 4 -15 8 -15 10 0 2 7 4 15 4 8 0 15 -4 15 -10z m87
-9 c7 7 12 5 16 -5 4 -10 1 -13 -9 -9 -10 4 -13 0 -8 -13 4 -13 3 -15 -3 -6
-5 6 -18 19 -29 28 -18 15 -18 15 2 5 14 -7 24 -7 31 0z m-23 -37 c5 -14 4
-15 -9 -4 -17 14 -19 20 -6 20 5 0 12 -7 15 -16z"/>
<path d="M76 2207 c3 -10 9 -15 12 -12 3 3 0 11 -7 18 -10 9 -11 8 -5 -6z"/>
<path d="M126 2182 c-3 -5 1 -9 9 -9 8 0 12 4 9 9 -3 4 -7 8 -9 8 -2 0 -6 -4
-9 -8z"/>
<path d="M2130 2086 c4 -4 16 -4 26 2 16 9 14 10 -8 9 -15 -1 -23 -6 -18 -11z"/>
<path d="M206 2055 c4 -8 10 -15 15 -15 4 0 6 7 3 15 -4 8 -10 15 -15 15 -4 0
-6 -7 -3 -15z"/>
<path d="M2009 1962 c-29 -34 -32 -45 -7 -27 13 11 25 25 25 32 0 16 0 16 -18
-5z"/>
<path d="M1951 1927 c-8 -10 -7 -14 2 -14 8 0 14 6 14 14 0 7 -1 13 -2 13 -2
0 -8 -6 -14 -13z"/>
<path d="M1916 1917 c3 -10 9 -15 12 -12 3 3 0 11 -7 18 -10 9 -11 8 -5 -6z"/>
<path d="M376 1901 c-3 -5 1 -14 10 -21 12 -11 17 -11 27 0 9 10 9 11 0 6 -7
-4 -18 -4 -25 0 -8 5 -6 10 8 15 16 6 16 8 2 8 -9 1 -19 -3 -22 -8z"/>
<path d="M1815 1801 c-3 -5 -2 -12 3 -15 5 -3 9 1 9 9 0 17 -3 19 -12 6z"/>
<path d="M535 1760 c3 -5 8 -10 11 -10 2 0 4 5 4 10 0 6 -5 10 -11 10 -5 0 -7
-4 -4 -10z"/>
<path d="M1787 1745 c3 -8 9 -12 14 -9 12 7 11 11 -5 17 -10 4 -13 1 -9 -8z"/>
<path d="M567 1713 c3 -7 6 -13 8 -13 2 0 5 6 8 13 3 8 -1 14 -8 14 -7 0 -11
-6 -8 -14z"/>
<path d="M1666 1658 c3 -5 10 -6 15 -3 13 9 11 12 -6 12 -8 0 -12 -4 -9 -9z"/>
<path d="M1501 1471 c-9 -6 -10 -11 -2 -15 6 -4 8 -13 5 -19 -4 -7 -3 -9 1 -4
7 5 16 48 11 47 -1 0 -7 -4 -15 -9z"/>
<path d="M836 1432 c-2 -4 -1 -14 4 -22 7 -11 9 -9 7 8 -1 24 -3 26 -11 14z"/>
<path d="M930 1355 c-11 -13 -10 -14 4 -9 9 3 16 10 16 15 0 13 -6 11 -20 -6z"/>
<path d="M1383 1343 c-7 -2 -13 -12 -13 -21 0 -15 -2 -15 -10 -2 -6 9 -10 10
-10 3 0 -23 18 -22 34 2 9 14 15 25 14 24 -2 0 -9 -3 -15 -6z"/>
<path d="M948 1333 c7 -3 16 -2 19 1 4 3 -2 6 -13 5 -11 0 -14 -3 -6 -6z"/>
<path d="M961 1287 c2 -1 12 -9 22 -16 15 -12 17 -12 11 3 -3 9 -13 16 -22 16
-8 0 -13 -1 -11 -3z"/>
<path d="M1081 1196 c-8 -10 -9 -16 -1 -21 6 -3 8 -9 6 -13 -2 -4 8 -8 22 -9
l27 -1 -28 14 c-15 8 -25 19 -22 25 4 5 11 6 17 3 7 -4 8 -2 4 4 -9 15 -11 15
-25 -2z"/>
<path d="M1235 1180 c4 -6 11 -8 16 -5 14 9 11 15 -7 15 -8 0 -12 -5 -9 -10z"/>
</g>
</svg>
